<svg width="60" height="68" viewBox="0 0 60 68" fill="none" xmlns="http://www.w3.org/2000/svg">
<g id="&#240;&#159;&#166;&#134; icon &#34;tea coffee&#34;" filter="url(#filter0_d_92_322)">
<path id="Vector" d="M4.05176 23.3271L38.3528 17.2789L41.5832 35.5994C43.3196 45.512 37.1415 54.8821 27.7729 56.5462L27.425 56.6075C18.0512 58.2483 9.0408 51.5564 7.28235 41.6487L7.28215 41.6475L4.05176 23.3271ZM35.7069 21.2918L7.91056 26.193L10.5345 41.074C11.9559 49.0848 19.2404 54.495 26.8177 53.1683L27.1654 53.107C34.7403 51.762 39.735 44.1866 38.3311 36.1737L38.3309 36.1728L35.7069 21.2918ZM44.486 19.2237C49.4058 18.4161 54.109 21.9404 55.026 27.1406C55.031 27.169 55.036 27.1974 55.0407 27.2259L55.0399 27.2216C55.0444 27.2455 55.0495 27.2739 55.0545 27.3024C55.9715 32.5024 52.7571 37.4229 47.8631 38.3458L47.8579 38.3467C42.9382 39.1543 38.2349 35.63 37.318 30.4298C37.313 30.4013 37.308 30.373 37.3033 30.3445L37.304 30.3488C37.2995 30.3249 37.2944 30.2965 37.2894 30.2681C36.3725 25.068 39.5868 20.1475 44.4808 19.2247L44.4859 19.2238L44.486 19.2237ZM47.2514 34.9073C50.3545 34.3019 52.3848 31.1785 51.8028 27.8782C51.7977 27.8489 51.7923 27.8197 51.7868 27.7905L51.7875 27.795C51.7836 27.7702 51.7786 27.7408 51.7734 27.7114C51.1915 24.4112 48.2154 22.1706 45.0974 22.6622L45.0924 22.6631C41.9893 23.2684 39.9591 26.3917 40.541 29.6921C40.5462 29.7214 40.5515 29.7506 40.5571 29.7798L40.5563 29.7753C40.5603 29.8001 40.5652 29.8295 40.5704 29.8589C41.1523 33.1591 44.1284 35.3997 47.2464 34.9081L47.2514 34.9072L47.2514 34.9073ZM45.1825 53.4764L9.9925 59.6813L9.38604 56.242L44.5761 50.037L45.1825 53.4764ZM10.3766 20.6279C9.07147 19.5979 8.11059 18.0642 7.79018 16.2471C7.644 15.4181 7.64332 14.5989 7.76899 13.8185L7.76294 13.8685C7.8724 13.4116 7.89231 12.8964 7.80011 12.3735C7.62869 11.4013 7.10196 10.5863 6.38821 10.0538L6.38838 10.0539L8.45533 7.37258C9.76042 8.40247 10.7213 9.93613 11.0417 11.7533C11.1879 12.5824 11.1886 13.4015 11.063 14.182L11.069 14.1319C10.9595 14.5888 10.9396 15.104 11.0318 15.6269C11.2032 16.5991 11.73 17.4141 12.4437 17.9466L12.4436 17.9465L10.3766 20.6279ZM20.7189 18.8043C19.4138 17.7743 18.4529 16.2406 18.1325 14.4234C17.9863 13.5944 17.9855 12.7753 18.1112 11.9948L18.1052 12.0449C18.2146 11.588 18.2345 11.0727 18.1423 10.5499C17.9709 9.57767 17.4442 8.76271 16.7304 8.23014L16.7306 8.23027L18.7975 5.54898C20.1025 6.57887 21.0634 8.11254 21.3838 9.92975C21.53 10.7588 21.5307 11.578 21.4051 12.3584L21.4111 12.3083C21.3017 12.7652 21.2818 13.2805 21.374 13.8033C21.5454 14.7755 22.0722 15.5905 22.7859 16.123L22.7857 16.1229L20.7189 18.8043ZM31.1906 16.9791C29.8339 15.9504 28.8332 14.3884 28.5053 12.5287C28.3624 11.7183 28.3589 10.9173 28.4769 10.1528L28.4712 10.2029C28.5749 9.75457 28.5923 9.24937 28.5019 8.73693C28.3295 7.75924 27.7978 6.9406 27.078 6.4083L27.0778 6.40817L29.1435 3.71992C30.4583 4.75064 31.4267 6.29042 31.7486 8.11623C31.8915 8.9265 31.8955 9.72732 31.7784 10.4918L31.784 10.4414C31.6803 10.8886 31.6627 11.3926 31.7528 11.9038C31.9286 12.9007 32.4799 13.7315 33.2231 14.26L33.2244 14.2608L31.1906 16.9791Z" fill="black"/>
</g>
<defs>
<filter id="filter0_d_92_322" x="0.0517578" y="3.71997" width="59.1592" height="63.9614" filterUnits="userSpaceOnUse" color-interpolation-filters="sRGB">
<feFlood flood-opacity="0" result="BackgroundImageFix"/>
<feColorMatrix in="SourceAlpha" type="matrix" values="0 0 0 0 0 0 0 0 0 0 0 0 0 0 0 0 0 0 127 0" result="hardAlpha"/>
<feOffset dy="4"/>
<feGaussianBlur stdDeviation="2"/>
<feComposite in2="hardAlpha" operator="out"/>
<feColorMatrix type="matrix" values="0 0 0 0 0 0 0 0 0 0 0 0 0 0 0 0 0 0 0.25 0"/>
<feBlend mode="normal" in2="BackgroundImageFix" result="effect1_dropShadow_92_322"/>
<feBlend mode="normal" in="SourceGraphic" in2="effect1_dropShadow_92_322" result="shape"/>
</filter>
</defs>
</svg>
